<?xml version="1.0" encoding="UTF-8"?>
<!DOCTYPE svg PUBLIC "-//W3C//DTD SVG 1.1 Tiny//EN" "http://www.w3.org/Graphics/SVG/1.1/DTD/svg11-tiny.dtd">
<svg xmlns="http://www.w3.org/2000/svg" font-family="mono" font-size="14" height="480" width="576" version="1.1" baseProfile="tiny">
 <g>
  <line stroke="black" stroke-width="2" x1="4" x2="4" y1="216" y2="224"/>
  <line stroke="black" stroke-width="2"  x1="4" x2="12" y1="216" y2="216"/>
 </g>
 <g>
  <line stroke="black" stroke-width="2" x1="4" x2="4" y1="344" y2="336"/>
  <line stroke="black" stroke-width="2" x1="4" x2="4" y1="344" y2="440"/>
  <line stroke="black" stroke-width="2"  x1="4" x2="12" y1="344" y2="344"/>
  <line stroke="black" stroke-width="2" x1="4" x2="32" y1="440" y2="440"/>
 </g>
 <g>
  <line stroke="black" stroke-width="2" x1="20" x2="16" y1="216" y2="216"/>
  <line stroke="black" stroke-width="2"  x1="20" x2="28" y1="216" y2="216"/>
 </g>
 <g>
  <line stroke="black" stroke-width="2" x1="20" x2="20" y1="280" y2="408"/>
  <line stroke="black" stroke-width="2"  x1="20" x2="28" y1="280" y2="280"/>
  <line stroke="black" stroke-width="2" x1="20" x2="32" y1="408" y2="408"/>
 </g>
 <g>
  <line stroke="black" stroke-width="2" x1="36" x2="36" y1="40" y2="72"/>
  <line stroke="black" stroke-width="2" x1="36" x2="52" y1="40" y2="40"/>
  <line stroke="black" stroke-width="2" x1="36" x2="36" y1="72" y2="104"/>
  <line stroke="black" stroke-width="2" x1="36" x2="52" y1="72" y2="72"/>
  <line stroke="black" stroke-width="2" x1="36" x2="36" y1="104" y2="136"/>
  <line stroke="black" stroke-width="2" x1="36" x2="52" y1="104" y2="104"/>
  <line stroke="black" stroke-width="2" x1="36" x2="36" y1="136" y2="184"/>
  <line stroke="black" stroke-width="2" x1="36" x2="40" y1="136" y2="136"/>
  <line stroke="black" stroke-width="2" x1="36" x2="36" y1="184" y2="216"/>
  <line stroke="black" stroke-width="2" x1="36" x2="52" y1="184" y2="184"/>
  <line stroke="black" stroke-width="2" x1="36" x2="32" y1="216" y2="216"/>
  <line stroke="black" stroke-width="2" x1="36" x2="36" y1="216" y2="280"/>
  <line stroke="black" stroke-width="2" x1="36" x2="52" y1="216" y2="216"/>
  <line stroke="black" stroke-width="2" x1="36" x2="32" y1="280" y2="280"/>
  <line stroke="black" stroke-width="2" x1="36" x2="36" y1="280" y2="312"/>
  <line stroke="black" stroke-width="2" x1="36" x2="52" y1="280" y2="280"/>
  <line stroke="black" stroke-width="2" x1="36" x2="36" y1="312" y2="344"/>
  <line stroke="black" stroke-width="2" x1="36" x2="52" y1="312" y2="312"/>
  <line stroke="black" stroke-width="2" x1="36" x2="36" y1="344" y2="376"/>
  <line stroke="black" stroke-width="2" x1="36" x2="52" y1="344" y2="344"/>
  <line stroke="black" stroke-width="2" x1="36" x2="52" y1="376" y2="376"/>
  <line stroke="black" stroke-width="2" x1="52" x2="68" y1="40" y2="40"/>
  <line stroke="black" stroke-width="2" x1="52" x2="68" y1="72" y2="72"/>
  <line stroke="black" stroke-width="2" x1="52" x2="68" y1="104" y2="104"/>
  <line stroke="black" stroke-width="2" x1="52" x2="68" y1="184" y2="184"/>
  <line stroke="black" stroke-width="2" x1="52" x2="68" y1="216" y2="216"/>
  <line stroke="black" stroke-width="2" x1="52" x2="68" y1="280" y2="280"/>
  <line stroke="black" stroke-width="2" x1="52" x2="68" y1="312" y2="312"/>
  <line stroke="black" stroke-width="2" x1="52" x2="68" y1="344" y2="344"/>
  <line stroke="black" stroke-width="2" x1="52" x2="68" y1="376" y2="376"/>
  <line stroke="black" stroke-width="2" x1="68" x2="68" y1="40" y2="72"/>
  <line stroke="black" stroke-width="2" x1="68" x2="84" y1="40" y2="40"/>
  <line stroke="black" stroke-width="2" x1="68" x2="84" y1="72" y2="72"/>
  <line stroke="black" stroke-width="2" x1="68" x2="84" y1="104" y2="104"/>
  <line stroke="black" stroke-width="2" x1="68" x2="84" y1="184" y2="184"/>
  <line stroke="black" stroke-width="2" x1="68" x2="84" y1="216" y2="216"/>
  <line stroke="black" stroke-width="2" x1="68" x2="84" y1="280" y2="280"/>
  <line stroke="black" stroke-width="2" x1="68" x2="84" y1="312" y2="312"/>
  <line stroke="black" stroke-width="2" x1="68" x2="84" y1="344" y2="344"/>
  <line stroke="black" stroke-width="2" x1="68" x2="84" y1="376" y2="376"/>
  <line stroke="black" stroke-width="2" x1="84" x2="84" y1="40" y2="72"/>
  <line stroke="black" stroke-width="2" x1="84" x2="100" y1="40" y2="40"/>
  <line stroke="black" stroke-width="2" x1="84" x2="100" y1="72" y2="72"/>
  <line stroke="black" stroke-width="2" x1="84" x2="100" y1="104" y2="104"/>
  <line stroke="black" stroke-width="2" x1="84" x2="100" y1="184" y2="184"/>
  <line stroke="black" stroke-width="2" x1="84" x2="100" y1="216" y2="216"/>
  <line stroke="black" stroke-width="2" x1="84" x2="100" y1="280" y2="280"/>
  <line stroke="black" stroke-width="2" x1="84" x2="100" y1="312" y2="312"/>
  <line stroke="black" stroke-width="2" x1="84" x2="100" y1="344" y2="344"/>
  <line stroke="black" stroke-width="2" x1="84" x2="100" y1="376" y2="376"/>
  <line stroke="black" stroke-width="2" x1="100" x2="100" y1="40" y2="72"/>
  <line stroke="black" stroke-width="2" x1="100" x2="116" y1="40" y2="40"/>
  <line stroke="black" stroke-width="2" x1="100" x2="116" y1="72" y2="72"/>
  <line stroke="black" stroke-width="2" x1="100" x2="116" y1="104" y2="104"/>
  <line stroke="black" stroke-width="2" x1="100" x2="116" y1="184" y2="184"/>
  <line stroke="black" stroke-width="2" x1="100" x2="116" y1="216" y2="216"/>
  <line stroke="black" stroke-width="2" x1="100" x2="116" y1="280" y2="280"/>
  <line stroke="black" stroke-width="2" x1="100" x2="116" y1="312" y2="312"/>
  <line stroke="black" stroke-width="2" x1="100" x2="116" y1="344" y2="344"/>
  <line stroke="black" stroke-width="2" x1="100" x2="116" y1="376" y2="376"/>
  <line stroke="black" stroke-width="2" x1="116" x2="132" y1="40" y2="40"/>
  <line stroke="black" stroke-width="2" x1="116" x2="132" y1="72" y2="72"/>
  <line stroke="black" stroke-width="2" x1="116" x2="132" y1="104" y2="104"/>
  <line stroke="black" stroke-width="2" x1="116" x2="132" y1="184" y2="184"/>
  <line stroke="black" stroke-width="2" x1="116" x2="132" y1="216" y2="216"/>
  <line stroke="black" stroke-width="2" x1="116" x2="132" y1="280" y2="280"/>
  <line stroke="black" stroke-width="2" x1="116" x2="132" y1="312" y2="312"/>
  <line stroke="black" stroke-width="2" x1="116" x2="132" y1="344" y2="344"/>
  <line stroke="black" stroke-width="2" x1="116" x2="132" y1="376" y2="376"/>
  <line stroke="black" stroke-width="2" x1="132" x2="148" y1="40" y2="40"/>
  <line stroke="black" stroke-width="2" x1="132" x2="148" y1="72" y2="72"/>
  <line stroke="black" stroke-width="2" x1="132" x2="148" y1="104" y2="104"/>
  <line stroke="black" stroke-width="2" x1="132" x2="148" y1="184" y2="184"/>
  <line stroke="black" stroke-width="2" x1="132" x2="148" y1="216" y2="216"/>
  <line stroke="black" stroke-width="2" x1="132" x2="148" y1="280" y2="280"/>
  <line stroke="black" stroke-width="2" x1="132" x2="148" y1="312" y2="312"/>
  <line stroke="black" stroke-width="2" x1="132" x2="148" y1="344" y2="344"/>
  <line stroke="black" stroke-width="2" x1="132" x2="148" y1="376" y2="376"/>
  <line stroke="black" stroke-width="2" x1="148" x2="164" y1="40" y2="40"/>
  <line stroke="black" stroke-width="2" x1="148" x2="164" y1="72" y2="72"/>
  <line stroke="black" stroke-width="2" x1="148" x2="164" y1="104" y2="104"/>
  <line stroke="black" stroke-width="2" x1="148" x2="164" y1="184" y2="184"/>
  <line stroke="black" stroke-width="2" x1="148" x2="164" y1="216" y2="216"/>
  <line stroke="black" stroke-width="2" x1="148" x2="164" y1="280" y2="280"/>
  <line stroke="black" stroke-width="2" x1="148" x2="164" y1="312" y2="312"/>
  <line stroke="black" stroke-width="2" x1="148" x2="164" y1="344" y2="344"/>
  <line stroke="black" stroke-width="2" x1="148" x2="164" y1="376" y2="376"/>
  <line stroke="black" stroke-width="2" x1="164" x2="164" y1="40" y2="72"/>
  <line stroke="black" stroke-width="2" x1="164" x2="180" y1="40" y2="40"/>
  <line stroke="black" stroke-width="2" x1="164" x2="180" y1="72" y2="72"/>
  <line stroke="black" stroke-width="2" x1="164" x2="180" y1="104" y2="104"/>
  <line stroke="black" stroke-width="2" x1="164" x2="180" y1="184" y2="184"/>
  <line stroke="black" stroke-width="2" x1="164" x2="180" y1="216" y2="216"/>
  <line stroke="black" stroke-width="2" x1="164" x2="180" y1="280" y2="280"/>
  <line stroke="black" stroke-width="2" x1="164" x2="180" y1="312" y2="312"/>
  <line stroke="black" stroke-width="2" x1="164" x2="180" y1="344" y2="344"/>
  <line stroke="black" stroke-width="2" x1="164" x2="180" y1="376" y2="376"/>
  <line stroke="black" stroke-width="2" x1="180" x2="180" y1="40" y2="72"/>
  <line stroke="black" stroke-width="2" x1="180" x2="196" y1="40" y2="40"/>
  <line stroke="black" stroke-width="2" x1="180" x2="196" y1="72" y2="72"/>
  <line stroke="black" stroke-width="2" x1="180" x2="180" y1="104" y2="112"/>
  <line stroke="black" stroke-width="2" x1="180" x2="196" y1="104" y2="104"/>
  <line stroke="black" stroke-width="2" x1="180" x2="196" y1="184" y2="184"/>
  <line stroke="black" stroke-width="2" x1="180" x2="196" y1="216" y2="216"/>
  <line stroke="black" stroke-width="2" x1="180" x2="196" y1="280" y2="280"/>
  <line stroke="black" stroke-width="2" x1="180" x2="196" y1="312" y2="312"/>
  <line stroke="black" stroke-width="2" x1="180" x2="196" y1="344" y2="344"/>
  <line stroke="black" stroke-width="2" x1="180" x2="196" y1="376" y2="376"/>
  <line stroke="black" stroke-width="2" x1="196" x2="212" y1="40" y2="40"/>
  <line stroke="black" stroke-width="2" x1="196" x2="212" y1="72" y2="72"/>
  <line stroke="black" stroke-width="2" x1="196" x2="212" y1="104" y2="104"/>
  <line stroke="black" stroke-width="2" x1="196" x2="212" y1="184" y2="184"/>
  <line stroke="black" stroke-width="2" x1="196" x2="212" y1="216" y2="216"/>
  <line stroke="black" stroke-width="2" x1="196" x2="212" y1="280" y2="280"/>
  <line stroke="black" stroke-width="2" x1="196" x2="212" y1="312" y2="312"/>
  <line stroke="black" stroke-width="2" x1="196" x2="212" y1="344" y2="344"/>
  <line stroke="black" stroke-width="2" x1="196" x2="212" y1="376" y2="376"/>
  <line stroke="black" stroke-width="2" x1="212" x2="228" y1="40" y2="40"/>
  <line stroke="black" stroke-width="2" x1="212" x2="228" y1="72" y2="72"/>
  <line stroke="black" stroke-width="2" x1="212" x2="228" y1="104" y2="104"/>
  <line stroke="black" stroke-width="2" x1="212" x2="228" y1="184" y2="184"/>
  <line stroke="black" stroke-width="2" x1="212" x2="228" y1="216" y2="216"/>
  <line stroke="black" stroke-width="2" x1="212" x2="228" y1="280" y2="280"/>
  <line stroke="black" stroke-width="2" x1="212" x2="228" y1="312" y2="312"/>
  <line stroke="black" stroke-width="2" x1="212" x2="228" y1="344" y2="344"/>
  <line stroke="black" stroke-width="2" x1="212" x2="228" y1="376" y2="376"/>
  <line stroke="black" stroke-width="2" x1="228" x2="244" y1="40" y2="40"/>
  <line stroke="black" stroke-width="2" x1="228" x2="244" y1="72" y2="72"/>
  <line stroke="black" stroke-width="2" x1="228" x2="244" y1="104" y2="104"/>
  <line stroke="black" stroke-width="2" x1="228" x2="244" y1="184" y2="184"/>
  <line stroke="black" stroke-width="2" x1="228" x2="244" y1="216" y2="216"/>
  <line stroke="black" stroke-width="2" x1="228" x2="244" y1="280" y2="280"/>
  <line stroke="black" stroke-width="2" x1="228" x2="244" y1="312" y2="312"/>
  <line stroke="black" stroke-width="2" x1="228" x2="244" y1="344" y2="344"/>
  <line stroke="black" stroke-width="2" x1="228" x2="244" y1="376" y2="376"/>
  <line stroke="black" stroke-width="2" x1="244" x2="260" y1="40" y2="40"/>
  <line stroke="black" stroke-width="2" x1="244" x2="260" y1="72" y2="72"/>
  <line stroke="black" stroke-width="2" x1="244" x2="260" y1="104" y2="104"/>
  <line stroke="black" stroke-width="2" x1="244" x2="260" y1="184" y2="184"/>
  <line stroke="black" stroke-width="2" x1="244" x2="260" y1="216" y2="216"/>
  <line stroke="black" stroke-width="2" x1="244" x2="260" y1="280" y2="280"/>
  <line stroke="black" stroke-width="2" x1="244" x2="260" y1="312" y2="312"/>
  <line stroke="black" stroke-width="2" x1="244" x2="260" y1="344" y2="344"/>
  <line stroke="black" stroke-width="2" x1="244" x2="260" y1="376" y2="376"/>
  <line stroke="black" stroke-width="2" x1="260" x2="276" y1="40" y2="40"/>
  <line stroke="black" stroke-width="2" x1="260" x2="276" y1="72" y2="72"/>
  <line stroke="black" stroke-width="2" x1="260" x2="276" y1="104" y2="104"/>
  <line stroke="black" stroke-width="2" x1="260" x2="276" y1="184" y2="184"/>
  <line stroke="black" stroke-width="2" x1="260" x2="276" y1="216" y2="216"/>
  <line stroke="black" stroke-width="2" x1="260" x2="276" y1="280" y2="280"/>
  <line stroke="black" stroke-width="2" x1="260" x2="276" y1="312" y2="312"/>
  <line stroke="black" stroke-width="2" x1="260" x2="276" y1="344" y2="344"/>
  <line stroke="black" stroke-width="2" x1="260" x2="276" y1="376" y2="376"/>
  <line stroke="black" stroke-width="2" x1="276" x2="292" y1="40" y2="40"/>
  <line stroke="black" stroke-width="2" x1="276" x2="292" y1="72" y2="72"/>
  <line stroke="black" stroke-width="2" x1="276" x2="292" y1="104" y2="104"/>
  <line stroke="black" stroke-width="2" x1="276" x2="292" y1="184" y2="184"/>
  <line stroke="black" stroke-width="2" x1="276" x2="292" y1="216" y2="216"/>
  <line stroke="black" stroke-width="2" x1="276" x2="292" y1="280" y2="280"/>
  <line stroke="black" stroke-width="2" x1="276" x2="292" y1="312" y2="312"/>
  <line stroke="black" stroke-width="2" x1="276" x2="292" y1="344" y2="344"/>
  <line stroke="black" stroke-width="2" x1="276" x2="292" y1="376" y2="376"/>
  <line stroke="black" stroke-width="2" x1="292" x2="292" y1="40" y2="72"/>
  <line stroke="black" stroke-width="2" x1="292" x2="308" y1="40" y2="40"/>
  <line stroke="black" stroke-width="2" x1="292" x2="308" y1="72" y2="72"/>
  <line stroke="black" stroke-width="2" x1="292" x2="308" y1="104" y2="104"/>
  <line stroke="black" stroke-width="2" x1="292" x2="292" y1="172" y2="184"/>
  <line stroke="black" stroke-width="2" x1="292" x2="292" y1="184" y2="192"/>
  <line stroke="black" stroke-width="2" x1="292" x2="308" y1="184" y2="184"/>
  <line stroke="black" stroke-width="2" x1="292" x2="292" y1="216" y2="208"/>
  <line stroke="black" stroke-width="2" x1="292" x2="308" y1="216" y2="216"/>
  <line stroke="black" stroke-width="2" x1="292" x2="292" y1="248" y2="280"/>
  <line stroke="black" stroke-width="2" x1="292" x2="548" y1="248" y2="248"/>
  <line stroke="black" stroke-width="2" x1="292" x2="308" y1="280" y2="280"/>
  <line stroke="black" stroke-width="2" x1="292" x2="308" y1="312" y2="312"/>
  <line stroke="black" stroke-width="2" x1="292" x2="308" y1="344" y2="344"/>
  <line stroke="black" stroke-width="2" x1="292" x2="308" y1="376" y2="376"/>
  <line stroke="black" stroke-width="2" x1="308" x2="324" y1="40" y2="40"/>
  <line stroke="black" stroke-width="2" x1="308" x2="324" y1="72" y2="72"/>
  <line stroke="black" stroke-width="2" x1="308" x2="324" y1="104" y2="104"/>
  <line stroke="black" stroke-width="2" x1="308" x2="308" y1="172" y2="184"/>
  <line stroke="black" stroke-width="2" x1="308" x2="324" y1="184" y2="184"/>
  <line stroke="black" stroke-width="2" x1="308" x2="324" y1="216" y2="216"/>
  <line stroke="black" stroke-width="2" x1="308" x2="324" y1="280" y2="280"/>
  <line stroke="black" stroke-width="2" x1="308" x2="324" y1="312" y2="312"/>
  <line stroke="black" stroke-width="2" x1="308" x2="308" y1="332" y2="344"/>
  <line stroke="black" stroke-width="2" x1="308" x2="324" y1="344" y2="344"/>
  <line stroke="black" stroke-width="2" x1="308" x2="324" y1="376" y2="376"/>
  <line stroke="black" stroke-width="2" x1="324" x2="340" y1="40" y2="40"/>
  <line stroke="black" stroke-width="2" x1="324" x2="340" y1="72" y2="72"/>
  <line stroke="black" stroke-width="2" x1="324" x2="320" y1="104" y2="112"/>
  <line stroke="black" stroke-width="2" x1="324" x2="340" y1="104" y2="104"/>
  <line stroke="black" stroke-width="2" x1="324" x2="320" y1="184" y2="192"/>
  <line stroke="black" stroke-width="2" x1="324" x2="324" y1="184" y2="192"/>
  <line stroke="black" stroke-width="2" x1="324" x2="340" y1="184" y2="184"/>
  <line stroke="black" stroke-width="2" x1="324" x2="324" y1="216" y2="208"/>
  <line stroke="black" stroke-width="2" x1="324" x2="340" y1="216" y2="216"/>
  <line stroke="black" stroke-width="2" x1="324" x2="340" y1="280" y2="280"/>
  <line stroke="black" stroke-width="2" x1="324" x2="340" y1="312" y2="312"/>
  <line stroke="black" stroke-width="2" x1="324" x2="340" y1="344" y2="344"/>
  <line stroke="black" stroke-width="2" x1="324" x2="340" y1="376" y2="376"/>
  <line stroke="black" stroke-width="2" x1="340" x2="356" y1="40" y2="40"/>
  <line stroke="black" stroke-width="2" x1="340" x2="356" y1="72" y2="72"/>
  <line stroke="black" stroke-width="2" x1="340" x2="356" y1="104" y2="104"/>
  <line stroke="black" stroke-width="2" x1="340" x2="356" y1="184" y2="184"/>
  <line stroke="black" stroke-width="2" x1="340" x2="356" y1="216" y2="216"/>
  <line stroke="black" stroke-width="2" x1="340" x2="356" y1="280" y2="280"/>
  <line stroke="black" stroke-width="2" x1="340" x2="356" y1="312" y2="312"/>
  <line stroke="black" stroke-width="2" x1="340" x2="356" y1="344" y2="344"/>
  <line stroke="black" stroke-width="2" x1="340" x2="356" y1="376" y2="376"/>
  <line stroke="black" stroke-width="2" x1="356" x2="372" y1="40" y2="40"/>
  <line stroke="black" stroke-width="2" x1="356" x2="372" y1="72" y2="72"/>
  <line stroke="black" stroke-width="2" x1="356" x2="372" y1="104" y2="104"/>
  <line stroke="black" stroke-width="2" x1="356" x2="356" y1="184" y2="192"/>
  <line stroke="black" stroke-width="2" x1="356" x2="372" y1="184" y2="184"/>
  <line stroke="black" stroke-width="2" x1="356" x2="356" y1="216" y2="208"/>
  <line stroke="black" stroke-width="2" x1="356" x2="372" y1="216" y2="216"/>
  <line stroke="black" stroke-width="2" x1="356" x2="372" y1="280" y2="280"/>
  <line stroke="black" stroke-width="2" x1="356" x2="372" y1="312" y2="312"/>
  <line stroke="black" stroke-width="2" x1="356" x2="372" y1="344" y2="344"/>
  <line stroke="black" stroke-width="2" x1="356" x2="372" y1="376" y2="376"/>
  <line stroke="black" stroke-width="2" x1="372" x2="388" y1="40" y2="40"/>
  <line stroke="black" stroke-width="2" x1="372" x2="388" y1="72" y2="72"/>
  <line stroke="black" stroke-width="2" x1="372" x2="388" y1="104" y2="104"/>
  <line stroke="black" stroke-width="2" x1="372" x2="388" y1="184" y2="184"/>
  <line stroke="black" stroke-width="2" x1="372" x2="388" y1="216" y2="216"/>
  <line stroke="black" stroke-width="2" x1="372" x2="388" y1="280" y2="280"/>
  <line stroke="black" stroke-width="2" x1="372" x2="388" y1="312" y2="312"/>
  <line stroke="black" stroke-width="2" x1="372" x2="388" y1="344" y2="344"/>
  <line stroke="black" stroke-width="2" x1="372" x2="388" y1="376" y2="376"/>
  <line stroke="black" stroke-width="2" x1="388" x2="404" y1="40" y2="40"/>
  <line stroke="black" stroke-width="2" x1="388" x2="404" y1="72" y2="72"/>
  <line stroke="black" stroke-width="2" x1="388" x2="404" y1="104" y2="104"/>
  <line stroke="black" stroke-width="2" x1="388" x2="404" y1="184" y2="184"/>
  <line stroke="black" stroke-width="2" x1="388" x2="404" y1="216" y2="216"/>
  <line stroke="black" stroke-width="2" x1="388" x2="404" y1="280" y2="280"/>
  <line stroke="black" stroke-width="2" x1="388" x2="404" y1="312" y2="312"/>
  <line stroke="black" stroke-width="2" x1="388" x2="404" y1="344" y2="344"/>
  <line stroke="black" stroke-width="2" x1="388" x2="404" y1="376" y2="376"/>
  <line stroke="black" stroke-width="2" x1="404" x2="420" y1="40" y2="40"/>
  <line stroke="black" stroke-width="2" x1="404" x2="420" y1="72" y2="72"/>
  <line stroke="black" stroke-width="2" x1="404" x2="420" y1="104" y2="104"/>
  <line stroke="black" stroke-width="2" x1="404" x2="420" y1="184" y2="184"/>
  <line stroke="black" stroke-width="2" x1="404" x2="404" y1="204" y2="216"/>
  <line stroke="black" stroke-width="2" x1="404" x2="420" y1="216" y2="216"/>
  <line stroke="black" stroke-width="2" x1="404" x2="420" y1="280" y2="280"/>
  <line stroke="black" stroke-width="2" x1="404" x2="420" y1="312" y2="312"/>
  <line stroke="black" stroke-width="2" x1="404" x2="420" y1="344" y2="344"/>
  <line stroke="black" stroke-width="2" x1="404" x2="420" y1="376" y2="376"/>
  <line stroke="black" stroke-width="2" x1="420" x2="436" y1="40" y2="40"/>
  <line stroke="black" stroke-width="2" x1="420" x2="436" y1="72" y2="72"/>
  <line stroke="black" stroke-width="2" x1="420" x2="436" y1="104" y2="104"/>
  <line stroke="black" stroke-width="2" x1="420" x2="436" y1="184" y2="184"/>
  <line stroke="black" stroke-width="2" x1="420" x2="420" y1="204" y2="216"/>
  <line stroke="black" stroke-width="2" x1="420" x2="436" y1="216" y2="216"/>
  <line stroke="black" stroke-width="2" x1="420" x2="420" y1="256" y2="280"/>
  <line stroke="black" stroke-width="2" x1="420" x2="436" y1="280" y2="280"/>
  <line stroke="black" stroke-width="2" x1="420" x2="436" y1="312" y2="312"/>
  <line stroke="black" stroke-width="2" x1="420" x2="436" y1="344" y2="344"/>
  <line stroke="black" stroke-width="2" x1="420" x2="436" y1="376" y2="376"/>
  <line stroke="black" stroke-width="2" x1="436" x2="452" y1="40" y2="40"/>
  <line stroke="black" stroke-width="2" x1="436" x2="452" y1="72" y2="72"/>
  <line stroke="black" stroke-width="2" x1="436" x2="452" y1="104" y2="104"/>
  <line stroke="black" stroke-width="2" x1="436" x2="452" y1="184" y2="184"/>
  <line stroke="black" stroke-width="2" x1="436" x2="452" y1="216" y2="216"/>
  <line stroke="black" stroke-width="2" x1="436" x2="452" y1="280" y2="280"/>
  <line stroke="black" stroke-width="2" x1="436" x2="452" y1="312" y2="312"/>
  <line stroke="black" stroke-width="2" x1="436" x2="452" y1="344" y2="344"/>
  <line stroke="black" stroke-width="2" x1="436" x2="452" y1="376" y2="376"/>
  <line stroke="black" stroke-width="2" x1="452" x2="468" y1="40" y2="40"/>
  <line stroke="black" stroke-width="2" x1="452" x2="468" y1="72" y2="72"/>
  <line stroke="black" stroke-width="2" x1="452" x2="468" y1="104" y2="104"/>
  <line stroke="black" stroke-width="2" x1="452" x2="468" y1="184" y2="184"/>
  <line stroke="black" stroke-width="2" x1="452" x2="468" y1="216" y2="216"/>
  <line stroke="black" stroke-width="2" x1="452" x2="468" y1="280" y2="280"/>
  <line stroke="black" stroke-width="2" x1="452" x2="468" y1="312" y2="312"/>
  <line stroke="black" stroke-width="2" x1="452" x2="468" y1="344" y2="344"/>
  <line stroke="black" stroke-width="2" x1="452" x2="468" y1="376" y2="376"/>
  <line stroke="black" stroke-width="2" x1="468" x2="484" y1="40" y2="40"/>
  <line stroke="black" stroke-width="2" x1="468" x2="484" y1="72" y2="72"/>
  <line stroke="black" stroke-width="2" x1="468" x2="484" y1="104" y2="104"/>
  <line stroke="black" stroke-width="2" x1="468" x2="484" y1="184" y2="184"/>
  <line stroke="black" stroke-width="2" x1="468" x2="484" y1="216" y2="216"/>
  <line stroke="black" stroke-width="2" x1="468" x2="484" y1="280" y2="280"/>
  <line stroke="black" stroke-width="2" x1="468" x2="484" y1="312" y2="312"/>
  <line stroke="black" stroke-width="2" x1="468" x2="484" y1="344" y2="344"/>
  <line stroke="black" stroke-width="2" x1="468" x2="484" y1="376" y2="376"/>
  <line stroke="black" stroke-width="2" x1="484" x2="500" y1="40" y2="40"/>
  <line stroke="black" stroke-width="2" x1="484" x2="500" y1="72" y2="72"/>
  <line stroke="black" stroke-width="2" x1="484" x2="500" y1="104" y2="104"/>
  <line stroke="black" stroke-width="2" x1="484" x2="500" y1="184" y2="184"/>
  <line stroke="black" stroke-width="2" x1="484" x2="500" y1="216" y2="216"/>
  <line stroke="black" stroke-width="2" x1="484" x2="500" y1="280" y2="280"/>
  <line stroke="black" stroke-width="2" x1="484" x2="500" y1="312" y2="312"/>
  <line stroke="black" stroke-width="2" x1="484" x2="500" y1="344" y2="344"/>
  <line stroke="black" stroke-width="2" x1="484" x2="500" y1="376" y2="376"/>
  <line stroke="black" stroke-width="2" x1="500" x2="516" y1="40" y2="40"/>
  <line stroke="black" stroke-width="2" x1="500" x2="516" y1="72" y2="72"/>
  <line stroke="black" stroke-width="2" x1="500" x2="516" y1="104" y2="104"/>
  <line stroke="black" stroke-width="2" x1="500" x2="516" y1="184" y2="184"/>
  <line stroke="black" stroke-width="2" x1="500" x2="516" y1="216" y2="216"/>
  <line stroke="black" stroke-width="2" x1="500" x2="516" y1="280" y2="280"/>
  <line stroke="black" stroke-width="2" x1="500" x2="516" y1="312" y2="312"/>
  <line stroke="black" stroke-width="2" x1="500" x2="516" y1="344" y2="344"/>
  <line stroke="black" stroke-width="2" x1="500" x2="516" y1="376" y2="376"/>
  <line stroke="black" stroke-width="2" x1="516" x2="532" y1="40" y2="40"/>
  <line stroke="black" stroke-width="2" x1="516" x2="532" y1="72" y2="72"/>
  <line stroke="black" stroke-width="2" x1="516" x2="532" y1="104" y2="104"/>
  <line stroke="black" stroke-width="2" x1="516" x2="532" y1="184" y2="184"/>
  <line stroke="black" stroke-width="2" x1="516" x2="532" y1="216" y2="216"/>
  <line stroke="black" stroke-width="2" x1="516" x2="532" y1="280" y2="280"/>
  <line stroke="black" stroke-width="2" x1="516" x2="532" y1="312" y2="312"/>
  <line stroke="black" stroke-width="2" x1="516" x2="532" y1="344" y2="344"/>
  <line stroke="black" stroke-width="2" x1="516" x2="532" y1="376" y2="376"/>
  <line stroke="black" stroke-width="2" x1="532" x2="548" y1="40" y2="40"/>
  <line stroke="black" stroke-width="2" x1="532" x2="548" y1="72" y2="72"/>
  <line stroke="black" stroke-width="2" x1="532" x2="548" y1="104" y2="104"/>
  <line stroke="black" stroke-width="2" x1="532" x2="548" y1="184" y2="184"/>
  <line stroke="black" stroke-width="2" x1="532" x2="548" y1="216" y2="216"/>
  <line stroke="black" stroke-width="2" x1="532" x2="548" y1="280" y2="280"/>
  <line stroke="black" stroke-width="2" x1="532" x2="548" y1="312" y2="312"/>
  <line stroke="black" stroke-width="2" x1="532" x2="548" y1="344" y2="344"/>
  <line stroke="black" stroke-width="2" x1="532" x2="548" y1="376" y2="376"/>
  <line stroke="black" stroke-width="2" x1="548" x2="548" y1="40" y2="72"/>
  <line stroke="black" stroke-width="2" x1="548" x2="552" y1="40" y2="40"/>
  <line stroke="black" stroke-width="2" x1="548" x2="548" y1="72" y2="104"/>
  <line stroke="black" stroke-width="2" x1="548" x2="548" y1="104" y2="136"/>
  <line stroke="black" stroke-width="2" x1="548" x2="544" y1="136" y2="136"/>
  <line stroke="black" stroke-width="2" x1="548" x2="548" y1="136" y2="184"/>
  <line stroke="black" stroke-width="2" x1="548" x2="548" y1="184" y2="216"/>
  <line stroke="black" stroke-width="2" x1="548" x2="552" y1="184" y2="184"/>
  <line stroke="black" stroke-width="2" x1="548" x2="548" y1="216" y2="248"/>
  <line stroke="black" stroke-width="2" x1="548" x2="552" y1="216" y2="216"/>
  <line stroke="black" stroke-width="2" x1="548" x2="548" y1="248" y2="280"/>
  <line stroke="black" stroke-width="2" x1="548" x2="548" y1="280" y2="312"/>
  <line stroke="black" stroke-width="2" x1="548" x2="552" y1="280" y2="280"/>
  <line stroke="black" stroke-width="2" x1="548" x2="548" y1="312" y2="344"/>
  <line stroke="black" stroke-width="2" x1="548" x2="548" y1="344" y2="376"/>
  <path d="M 320 192 A 16 16 0 0 0 320 208"/>
 </g>
 <g>
  <line stroke="black" stroke-width="2" x1="40" x2="48" y1="134" y2="134"/>
 </g>
 <g>
  <line stroke="black" stroke-width="2" x1="40" x2="48" y1="138" y2="138"/>
 </g>
 <g>
  <line stroke="black" stroke-width="2" x1="52" x2="48" y1="136" y2="136"/>
  <line stroke="black" stroke-width="2" x1="52" x2="56" y1="136" y2="136"/>
 </g>
 <g>
  <line stroke="black" stroke-width="2" x1="56" x2="64" y1="134" y2="134"/>
 </g>
 <g>
  <line stroke="black" stroke-width="2" x1="56" x2="64" y1="138" y2="138"/>
 </g>
 <g>
  <line stroke="black" stroke-width="2" x1="68" x2="64" y1="136" y2="136"/>
  <line stroke="black" stroke-width="2" x1="68" x2="72" y1="136" y2="136"/>
 </g>
 <g>
  <line stroke="black" stroke-width="2" x1="72" x2="80" y1="134" y2="134"/>
 </g>
 <g>
  <line stroke="black" stroke-width="2" x1="72" x2="80" y1="138" y2="138"/>
 </g>
 <g>
  <line stroke="black" stroke-width="2" x1="84" x2="80" y1="136" y2="136"/>
  <line stroke="black" stroke-width="2" x1="84" x2="88" y1="136" y2="136"/>
 </g>
 <g>
  <line stroke="black" stroke-width="2" x1="88" x2="96" y1="134" y2="134"/>
 </g>
 <g>
  <line stroke="black" stroke-width="2" x1="88" x2="96" y1="138" y2="138"/>
 </g>
 <g>
  <line stroke="black" stroke-width="2" x1="92" x2="88" y1="56" y2="48"/>
  <line stroke="black" stroke-width="2" x1="92" x2="88" y1="56" y2="64"/>
  <line stroke="black" stroke-width="2" x1="92" x2="96" y1="56" y2="48"/>
  <line stroke="black" stroke-width="2" x1="92" x2="96" y1="56" y2="64"/>
 </g>
 <g>
  <line stroke="black" stroke-width="2" x1="100" x2="96" y1="136" y2="136"/>
  <line stroke="black" stroke-width="2" x1="100" x2="104" y1="136" y2="136"/>
 </g>
 <g>
  <line stroke="black" stroke-width="2" x1="104" x2="112" y1="134" y2="134"/>
 </g>
 <g>
  <line stroke="black" stroke-width="2" x1="104" x2="112" y1="138" y2="138"/>
 </g>
 <g>
  <line stroke="black" stroke-width="2" x1="116" x2="112" y1="136" y2="136"/>
  <line stroke="black" stroke-width="2" x1="116" x2="120" y1="136" y2="136"/>
 </g>
 <g>
  <line stroke="black" stroke-width="2" x1="120" x2="128" y1="134" y2="134"/>
 </g>
 <g>
  <line stroke="black" stroke-width="2" x1="120" x2="128" y1="138" y2="138"/>
 </g>
 <g>
  <line stroke="black" stroke-width="2" x1="132" x2="128" y1="136" y2="136"/>
  <line stroke="black" stroke-width="2" x1="132" x2="136" y1="136" y2="136"/>
 </g>
 <g>
  <line stroke="black" stroke-width="2" x1="136" x2="144" y1="134" y2="134"/>
 </g>
 <g>
  <line stroke="black" stroke-width="2" x1="136" x2="144" y1="138" y2="138"/>
 </g>
 <g>
  <line stroke="black" stroke-width="2" x1="148" x2="144" y1="136" y2="136"/>
  <line stroke="black" stroke-width="2" x1="148" x2="148" y1="136" y2="144"/>
  <line stroke="black" stroke-width="2" x1="148" x2="152" y1="136" y2="136"/>
 </g>
 <g>
  <line stroke="black" stroke-width="2" x1="152" x2="160" y1="134" y2="134"/>
 </g>
 <g>
  <line stroke="black" stroke-width="2" x1="152" x2="160" y1="138" y2="138"/>
 </g>
 <g>
  <line stroke="black" stroke-width="2" x1="164" x2="160" y1="136" y2="136"/>
  <line stroke="black" stroke-width="2" x1="164" x2="168" y1="136" y2="136"/>
 </g>
 <g>
  <line stroke="black" stroke-width="2" x1="168" x2="176" y1="134" y2="134"/>
 </g>
 <g>
  <line stroke="black" stroke-width="2" x1="168" x2="176" y1="138" y2="138"/>
 </g>
 <g>
  <line stroke="black" stroke-width="2" x1="180" x2="176" y1="136" y2="136"/>
  <line stroke="black" stroke-width="2" x1="180" x2="180" y1="136" y2="128"/>
  <line stroke="black" stroke-width="2" x1="180" x2="184" y1="136" y2="136"/>
 </g>
 <g>
  <line stroke="black" stroke-width="2" x1="184" x2="192" y1="134" y2="134"/>
 </g>
 <g>
  <line stroke="black" stroke-width="2" x1="184" x2="192" y1="138" y2="138"/>
 </g>
 <g>
  <line stroke="black" stroke-width="2" x1="196" x2="192" y1="136" y2="136"/>
  <line stroke="black" stroke-width="2" x1="196" x2="200" y1="136" y2="136"/>
 </g>
 <g>
  <line stroke="black" stroke-width="2" x1="200" x2="208" y1="134" y2="134"/>
 </g>
 <g>
  <line stroke="black" stroke-width="2" x1="200" x2="208" y1="138" y2="138"/>
 </g>
 <g>
  <line stroke="black" stroke-width="2" x1="212" x2="208" y1="136" y2="136"/>
  <line stroke="black" stroke-width="2" x1="212" x2="216" y1="136" y2="136"/>
 </g>
 <g>
  <line stroke="black" stroke-width="2" x1="216" x2="224" y1="134" y2="134"/>
 </g>
 <g>
  <line stroke="black" stroke-width="2" x1="216" x2="224" y1="138" y2="138"/>
 </g>
 <g>
  <line stroke="black" stroke-width="2" x1="228" x2="224" y1="136" y2="136"/>
  <line stroke="black" stroke-width="2" x1="228" x2="232" y1="136" y2="136"/>
 </g>
 <g>
  <line stroke="black" stroke-width="2" x1="232" x2="240" y1="134" y2="134"/>
 </g>
 <g>
  <line stroke="black" stroke-width="2" x1="232" x2="240" y1="138" y2="138"/>
 </g>
 <g>
  <line stroke="black" stroke-width="2" x1="244" x2="240" y1="136" y2="136"/>
  <line stroke="black" stroke-width="2" x1="244" x2="248" y1="136" y2="136"/>
 </g>
 <g>
  <line stroke="black" stroke-width="2" x1="248" x2="256" y1="134" y2="134"/>
 </g>
 <g>
  <line stroke="black" stroke-width="2" x1="248" x2="256" y1="138" y2="138"/>
 </g>
 <g>
  <line stroke="black" stroke-width="2" x1="260" x2="256" y1="136" y2="136"/>
  <line stroke="black" stroke-width="2" x1="260" x2="264" y1="136" y2="136"/>
 </g>
 <g>
  <line stroke="black" stroke-width="2" x1="264" x2="272" y1="134" y2="134"/>
 </g>
 <g>
  <line stroke="black" stroke-width="2" x1="264" x2="272" y1="138" y2="138"/>
 </g>
 <g>
  <line stroke="black" stroke-width="2" x1="276" x2="272" y1="136" y2="136"/>
  <line stroke="black" stroke-width="2" x1="276" x2="280" y1="136" y2="136"/>
 </g>
 <g>
  <line stroke="black" stroke-width="2" x1="280" x2="288" y1="134" y2="134"/>
 </g>
 <g>
  <line stroke="black" stroke-width="2" x1="280" x2="288" y1="138" y2="138"/>
 </g>
 <g>
  <line stroke="black" stroke-width="2" x1="292" x2="288" y1="136" y2="136"/>
  <line stroke="black" stroke-width="2" x1="292" x2="296" y1="136" y2="136"/>
 </g>
 <g>
  <line stroke="black" stroke-width="2" x1="296" x2="304" y1="134" y2="134"/>
 </g>
 <g>
  <line stroke="black" stroke-width="2" x1="296" x2="304" y1="138" y2="138"/>
 </g>
 <g>
  <line stroke="black" stroke-width="2" x1="308" x2="304" y1="136" y2="136"/>
  <line stroke="black" stroke-width="2" x1="308" x2="304" y1="136" y2="144"/>
  <line stroke="black" stroke-width="2" x1="308" x2="312" y1="136" y2="136"/>
 </g>
 <g>
  <line stroke="black" stroke-width="2" x1="312" x2="320" y1="134" y2="134"/>
 </g>
 <g>
  <line stroke="black" stroke-width="2" x1="312" x2="320" y1="138" y2="138"/>
 </g>
 <g>
  <line stroke="black" stroke-width="2" x1="324" x2="320" y1="136" y2="136"/>
  <line stroke="black" stroke-width="2" x1="324" x2="328" y1="136" y2="136"/>
 </g>
 <g>
  <line stroke="black" stroke-width="2" x1="328" x2="336" y1="134" y2="134"/>
 </g>
 <g>
  <line stroke="black" stroke-width="2" x1="328" x2="336" y1="138" y2="138"/>
 </g>
 <g>
  <line stroke="black" stroke-width="2" x1="340" x2="336" y1="136" y2="136"/>
  <line stroke="black" stroke-width="2" x1="340" x2="344" y1="136" y2="136"/>
 </g>
 <g>
  <line stroke="black" stroke-width="2" x1="344" x2="352" y1="134" y2="134"/>
 </g>
 <g>
  <line stroke="black" stroke-width="2" x1="344" x2="352" y1="138" y2="138"/>
 </g>
 <g>
  <line stroke="black" stroke-width="2" x1="356" x2="352" y1="136" y2="136"/>
  <line stroke="black" stroke-width="2" x1="356" x2="360" y1="136" y2="136"/>
 </g>
 <g>
  <line stroke="black" stroke-width="2" x1="360" x2="368" y1="134" y2="134"/>
 </g>
 <g>
  <line stroke="black" stroke-width="2" x1="360" x2="368" y1="138" y2="138"/>
 </g>
 <g>
  <line stroke="black" stroke-width="2" x1="372" x2="368" y1="136" y2="136"/>
  <line stroke="black" stroke-width="2" x1="372" x2="376" y1="136" y2="136"/>
 </g>
 <g>
  <line stroke="black" stroke-width="2" x1="376" x2="384" y1="134" y2="134"/>
 </g>
 <g>
  <line stroke="black" stroke-width="2" x1="376" x2="384" y1="138" y2="138"/>
 </g>
 <g>
  <line stroke="black" stroke-width="2" x1="388" x2="384" y1="136" y2="136"/>
  <line stroke="black" stroke-width="2" x1="388" x2="392" y1="136" y2="136"/>
 </g>
 <g>
  <line stroke="black" stroke-width="2" x1="392" x2="400" y1="134" y2="134"/>
 </g>
 <g>
  <line stroke="black" stroke-width="2" x1="392" x2="400" y1="138" y2="138"/>
 </g>
 <g>
  <line stroke="black" stroke-width="2" x1="404" x2="400" y1="136" y2="136"/>
  <line stroke="black" stroke-width="2" x1="404" x2="408" y1="136" y2="136"/>
 </g>
 <g>
  <line stroke="black" stroke-width="2" x1="408" x2="416" y1="134" y2="134"/>
 </g>
 <g>
  <line stroke="black" stroke-width="2" x1="408" x2="416" y1="138" y2="138"/>
 </g>
 <g>
  <line stroke="black" stroke-width="2" x1="420" x2="416" y1="136" y2="136"/>
  <line stroke="black" stroke-width="2" x1="420" x2="424" y1="136" y2="136"/>
 </g>
 <g>
  <line stroke="black" stroke-width="2" x1="424" x2="432" y1="134" y2="134"/>
 </g>
 <g>
  <line stroke="black" stroke-width="2" x1="424" x2="432" y1="138" y2="138"/>
 </g>
 <g>
  <line stroke="black" stroke-width="2" x1="436" x2="432" y1="136" y2="136"/>
  <line stroke="black" stroke-width="2" x1="436" x2="440" y1="136" y2="136"/>
 </g>
 <g>
  <line stroke="black" stroke-width="2" x1="440" x2="448" y1="134" y2="134"/>
 </g>
 <g>
  <line stroke="black" stroke-width="2" x1="440" x2="448" y1="138" y2="138"/>
 </g>
 <g>
  <line stroke="black" stroke-width="2" x1="452" x2="448" y1="136" y2="136"/>
  <line stroke="black" stroke-width="2" x1="452" x2="456" y1="136" y2="136"/>
 </g>
 <g>
  <line stroke="black" stroke-width="2" x1="456" x2="464" y1="134" y2="134"/>
 </g>
 <g>
  <line stroke="black" stroke-width="2" x1="456" x2="464" y1="138" y2="138"/>
 </g>
 <g>
  <line stroke="black" stroke-width="2" x1="468" x2="464" y1="136" y2="136"/>
  <line stroke="black" stroke-width="2" x1="468" x2="472" y1="136" y2="136"/>
 </g>
 <g>
  <line stroke="black" stroke-width="2" x1="472" x2="480" y1="134" y2="134"/>
 </g>
 <g>
  <line stroke="black" stroke-width="2" x1="472" x2="480" y1="138" y2="138"/>
 </g>
 <g>
  <line stroke="black" stroke-width="2" x1="484" x2="480" y1="136" y2="136"/>
  <line stroke="black" stroke-width="2" x1="484" x2="488" y1="136" y2="136"/>
 </g>
 <g>
  <line stroke="black" stroke-width="2" x1="488" x2="496" y1="134" y2="134"/>
 </g>
 <g>
  <line stroke="black" stroke-width="2" x1="488" x2="496" y1="138" y2="138"/>
 </g>
 <g>
  <line stroke="black" stroke-width="2" x1="500" x2="496" y1="136" y2="136"/>
  <line stroke="black" stroke-width="2" x1="500" x2="504" y1="136" y2="136"/>
 </g>
 <g>
  <line stroke="black" stroke-width="2" x1="504" x2="512" y1="134" y2="134"/>
 </g>
 <g>
  <line stroke="black" stroke-width="2" x1="504" x2="512" y1="138" y2="138"/>
 </g>
 <g>
  <line stroke="black" stroke-width="2" x1="516" x2="512" y1="136" y2="136"/>
  <line stroke="black" stroke-width="2" x1="516" x2="520" y1="136" y2="136"/>
 </g>
 <g>
  <line stroke="black" stroke-width="2" x1="520" x2="528" y1="134" y2="134"/>
 </g>
 <g>
  <line stroke="black" stroke-width="2" x1="520" x2="528" y1="138" y2="138"/>
 </g>
 <g>
  <line stroke="black" stroke-width="2" x1="532" x2="528" y1="136" y2="136"/>
  <line stroke="black" stroke-width="2" x1="532" x2="536" y1="136" y2="136"/>
 </g>
 <g>
  <line stroke="black" stroke-width="2" x1="536" x2="544" y1="134" y2="134"/>
 </g>
 <g>
  <line stroke="black" stroke-width="2" x1="536" x2="544" y1="138" y2="138"/>
 </g>
 <g>
  <line stroke="black" stroke-width="2" x1="536" x2="564" y1="408" y2="408"/>
  <line stroke="black" stroke-width="2" x1="564" x2="564" y1="280" y2="408"/>
  <line stroke="black" stroke-width="2" marker-end="url(#big_open_circle)" x1="564" x2="572" y1="280" y2="280"/>
 </g>
 <g>
  <line stroke="black" stroke-width="2" x1="536" x2="572" y1="440" y2="440"/>
  <line stroke="black" stroke-width="2" x1="572" x2="572" y1="344" y2="440"/>
 </g>
 <g>
  <line stroke="black" stroke-width="2"  x1="564" x2="556" y1="40" y2="40"/>
  <line stroke="black" stroke-width="2" x1="564" x2="572" y1="40" y2="40"/>
  <line stroke="black" stroke-width="2" x1="572" x2="572" y1="40" y2="48"/>
 </g>
 <g>
  <line stroke="black" stroke-width="2"  x1="564" x2="556" y1="184" y2="184"/>
  <line stroke="black" stroke-width="2" x1="564" x2="564" y1="184" y2="216"/>
  <line stroke="black" stroke-width="2"  x1="564" x2="556" y1="216" y2="216"/>
  <line stroke="black" stroke-width="2" marker-end="url(#big_open_circle)" x1="564" x2="572" y1="184" y2="184"/>
  <line stroke="black" stroke-width="2" marker-end="url(#big_open_circle)" x1="564" x2="572" y1="216" y2="216"/>
 </g>
 <g>
  <line stroke="black" stroke-width="2"  x1="564" x2="556" y1="280" y2="280"/>
 </g>
 <g>
  <line stroke="black" stroke-width="2" x1="572" x2="572" y1="344" y2="336"/>
 </g>
 <g>
  <text x="1" y="236">O</text>
 </g>
 <g>
  <text x="1" y="252">O</text>
 </g>
 <g>
  <text x="1" y="268">O</text>
 </g>
 <g>
  <text x="1" y="284">O</text>
 </g>
 <g>
  <text x="1" y="300">O</text>
 </g>
 <g>
  <text x="1" y="316">O</text>
 </g>
 <g>
  <text x="1" y="332">O</text>
 </g>
 <g>
  <text x="17" y="236">I</text>
 </g>
 <g>
  <text x="17" y="252">I</text>
 </g>
 <g>
  <text x="17" y="268">I</text>
 </g>
 <g>
  <text x="41" y="28">0</text>
 </g>
 <g>
  <text x="41" y="60">V=2</text>
 </g>
 <g>
  <text x="41" y="412">E2E</text>
 </g>
 <g>
  <text x="41" y="444">HBH</text>
 </g>
 <g>
  <text x="57" y="12">0</text>
 </g>
 <g>
  <text x="57" y="28">1</text>
 </g>
 <g>
  <text x="73" y="28">2</text>
 </g>
 <g>
  <text x="73" y="60">P</text>
 </g>
 <g>
  <text x="73" y="412">Encrypted</text>
 </g>
 <g>
  <text x="73" y="444">Encrypted</text>
 </g>
 <g>
  <text x="89" y="28">3</text>
 </g>
 <g>
  <text x="105" y="28">4</text>
 </g>
 <g>
  <text x="121" y="28">5</text>
 </g>
 <g>
  <text x="121" y="60">CC</text>
 </g>
 <g>
  <text x="129" y="124">synchronization</text>
 </g>
 <g>
  <text x="137" y="28">6</text>
 </g>
 <g>
  <text x="137" y="156">contributing</text>
 </g>
 <g>
  <text x="153" y="28">7</text>
 </g>
 <g>
  <text x="153" y="412">Portion</text>
 </g>
 <g>
  <text x="153" y="444">Portion</text>
 </g>
 <g>
  <text x="169" y="28">8</text>
 </g>
 <g>
  <text x="169" y="60">M</text>
 </g>
 <g>
  <text x="185" y="28">9</text>
 </g>
 <g>
  <text x="201" y="28">0</text>
 </g>
 <g>
  <text x="201" y="204">RTP</text>
 </g>
 <g>
  <text x="201" y="300">E2E</text>
 </g>
 <g>
  <text x="201" y="364">HBH</text>
 </g>
 <g>
  <text x="217" y="12">1</text>
 </g>
 <g>
  <text x="217" y="28">1</text>
 </g>
 <g>
  <text x="225" y="60">PT</text>
 </g>
 <g>
  <text x="233" y="28">2</text>
 </g>
 <g>
  <text x="233" y="204">extension</text>
 </g>
 <g>
  <text x="233" y="300">authentication</text>
 </g>
 <g>
  <text x="233" y="364">authentication</text>
 </g>
 <g>
  <text x="241" y="156">source</text>
 </g>
 <g>
  <text x="249" y="28">3</text>
 </g>
 <g>
  <text x="249" y="236">payload</text>
 </g>
 <g>
  <text x="257" y="92">timestamp</text>
 </g>
 <g>
  <text x="257" y="124">source</text>
 </g>
 <g>
  <text x="265" y="28">4</text>
 </g>
 <g>
  <text x="265" y="332">OHB</text>
 </g>
 <g>
  <text x="281" y="28">5</text>
 </g>
 <g>
  <text x="297" y="28">6</text>
 </g>
 <g>
  <text x="297" y="156">(CSRC)</text>
 </g>
 <g>
  <text x="297" y="172">.</text>
 </g>
 <g>
  <text x="297" y="332">.</text>
 </g>
 <g>
  <text x="305" y="268">RTP</text>
 </g>
 <g>
  <text x="313" y="28">7</text>
 </g>
 <g>
  <text x="313" y="124">(SSRC)</text>
 </g>
 <g>
  <text x="313" y="172">.</text>
 </g>
 <g>
  <text x="313" y="332">.</text>
 </g>
 <g>
  <text x="321" y="204">OPTIONAL)</text>
 </g>
 <g>
  <text x="321" y="236">...</text>
 </g>
 <g>
  <text x="329" y="28">8</text>
 </g>
 <g>
  <text x="329" y="412">E2E</text>
 </g>
 <g>
  <text x="329" y="444">HBH</text>
 </g>
 <g>
  <text x="337" y="268">padding</text>
 </g>
 <g>
  <text x="345" y="28">9</text>
 </g>
 <g>
  <text x="353" y="60">sequence</text>
 </g>
 <g>
  <text x="353" y="156">identifiers</text>
 </g>
 <g>
  <text x="353" y="300">tag</text>
 </g>
 <g>
  <text x="353" y="364">tag</text>
 </g>
 <g>
  <text x="361" y="28">0</text>
 </g>
 <g>
  <text x="361" y="412">Authenticated</text>
 </g>
 <g>
  <text x="361" y="444">Authenticated</text>
 </g>
 <g>
  <text x="369" y="124">identifier</text>
 </g>
 <g>
  <text x="377" y="12">2</text>
 </g>
 <g>
  <text x="377" y="28">1</text>
 </g>
 <g>
  <text x="393" y="28">2</text>
 </g>
 <g>
  <text x="409" y="28">3</text>
 </g>
 <g>
  <text x="409" y="204">.</text>
 </g>
 <g>
  <text x="425" y="28">4</text>
 </g>
 <g>
  <text x="425" y="60">number</text>
 </g>
 <g>
  <text x="433" y="268">RTP</text>
 </g>
 <g>
  <text x="441" y="28">5</text>
 </g>
 <g>
  <text x="457" y="28">6</text>
 </g>
 <g>
  <text x="465" y="268">pad</text>
 </g>
 <g>
  <text x="473" y="28">7</text>
 </g>
 <g>
  <text x="473" y="412">Portion</text>
 </g>
 <g>
  <text x="473" y="444">Portion</text>
 </g>
 <g>
  <text x="489" y="28">8</text>
 </g>
 <g>
  <text x="497" y="268">count</text>
 </g>
 <g>
  <text x="505" y="28">9</text>
 </g>
 <g>
  <text x="521" y="28">0</text>
 </g>
 <g>
  <text x="537" y="12">3</text>
 </g>
 <g>
  <text x="537" y="28">1</text>
 </g>
 <g>
  <text x="561" y="60">IO</text>
 </g>
 <g>
  <text x="561" y="76">IO</text>
 </g>
 <g>
  <text x="561" y="92">IO</text>
 </g>
 <g>
  <text x="561" y="108">IO</text>
 </g>
 <g>
  <text x="561" y="124">IO</text>
 </g>
 <g>
  <text x="561" y="140">IO</text>
 </g>
 <g>
  <text x="561" y="156">IO</text>
 </g>
 <g>
  <text x="561" y="172">IO</text>
 </g>
 <g>
  <text x="561" y="236">IO</text>
 </g>
 <g>
  <text x="561" y="252">IO</text>
 </g>
 <g>
  <text x="561" y="268">IO</text>
 </g>
 <g>
  <text x="569" y="204">O</text>
 </g>
 <g>
  <text x="569" y="300">O</text>
 </g>
 <g>
  <text x="569" y="316">O</text>
 </g>
 <g>
  <text x="569" y="332">O</text>
 </g>
</svg>
